<svg width="34" height="30" viewBox="0 0 34 30" fill="none" xmlns="http://www.w3.org/2000/svg">
<g clip-path="url(#clip0_606_1299)">
<path d="M33.1658 3.52941C31.9758 4.14706 30.6931 4.55294 29.364 4.74706C30.724 3.81176 31.7749 2.32941 32.2694 0.547059C30.9867 1.42941 29.5649 2.04706 28.0658 2.4C26.8449 0.882353 25.1294 0 23.1822 0C19.5504 0 16.5831 3.38824 16.5831 7.57059C16.5831 8.17059 16.6449 8.75294 16.7531 9.3C11.2513 8.98235 6.35224 5.96471 3.09133 1.39412C2.51951 2.50588 2.19496 3.81176 2.19496 5.18824C2.19496 7.81765 3.35405 10.1471 5.14678 11.4706C4.04951 11.4706 3.02951 11.1176 2.13314 10.5882V10.6412C2.13314 14.3118 4.42042 17.3824 7.44951 18.0706C6.477 18.3745 5.45601 18.4168 4.46678 18.1941C4.88654 19.6985 5.70862 21.0148 6.81745 21.9581C7.92628 22.9015 9.26611 23.4242 10.6486 23.4529C8.30512 25.5713 5.40024 26.7164 2.41133 26.7C1.88587 26.7 1.36042 26.6647 0.834961 26.5941C3.77133 28.7471 7.26405 30 11.0041 30C23.1822 30 29.874 18.4588 29.874 8.45294C29.874 8.11765 29.874 7.8 29.8585 7.46471C31.1567 6.40588 32.2694 5.06471 33.1658 3.52941Z" fill="white"/>
</g>
<defs>
<clipPath id="clip0_606_1299">
<rect width="34" height="30" fill="white"/>
</clipPath>
</defs>
</svg>
